<?xml version="1.0" encoding="UTF-8"?>
<!DOCTYPE svg PUBLIC "-//W3C//DTD SVG 1.1//EN" "http://www.w3.org/Graphics/SVG/1.1/DTD/svg11.dtd">
<!-- Creator: CorelDRAW 2020 (64-Bit) -->
<svg xmlns="http://www.w3.org/2000/svg" xml:space="preserve" width="26.579mm" height="26.8972mm" version="1.1" style="shape-rendering:geometricPrecision; text-rendering:geometricPrecision; image-rendering:optimizeQuality; fill-rule:evenodd; clip-rule:evenodd"
viewBox="0 0 54.71 55.36"
 xmlns:xlink="http://www.w3.org/1999/xlink"
 xmlns:xodm="http://www.corel.com/coreldraw/odm/2003">
 <defs>
  <style type="text/css">
   <![CDATA[
    .fil0 {fill:#3DB9B5}
    .fil1 {fill:#DA3030}
   ]]>
  </style>
 </defs>
 <g id="Layer_x0020_1">
  <metadata id="CorelCorpID_0Corel-Layer"/>
  <g id="_3006837456992">
   <path class="fil0" d="M47.4 32.4l-8.59 0c0,0.16 0.01,0.16 -0.03,0.29 -0,0.01 -0.01,0.03 -0.02,0.04l-0.19 0.36c-0.01,0.01 -0.01,0.03 -0.02,0.04l-0.76 1.41c-0.01,0.01 -0.01,0.03 -0.02,0.04l-0.62 0.91c-0.1,0.16 -0.28,0.27 -0.38,0.44 -0.2,0.32 -0.48,0.56 -0.74,0.83l-0.99 0.91c-0.17,0.11 -0.3,0.3 -0.47,0.4l-0.79 0.52c-0.06,0.05 -0.09,0.07 -0.12,0.1 -0.06,0.04 -0.03,0.02 -0.11,0.06 -0.01,0.01 -0.03,0.01 -0.04,0.02 -0,0 -0.07,0.03 -0.07,0.03l-0.23 0.15c-0.25,0.19 -0.57,0.31 -0.85,0.45l-0.07 0.04c-0.01,0.01 -0.03,0.01 -0.04,0.02l-0.18 0.09c-0.01,0.01 -0.03,0.01 -0.04,0.02l-0.33 0.11c-0.01,0.01 -0.02,0.01 -0.04,0.02l-1.04 0.37c-0.01,0 -0.03,0.01 -0.04,0.01l-1.6 0.36c-0.24,0.08 -0.58,0 -0.79,0.08l-0.47 0.07c-0.54,-0.01 -1.4,0.09 -1.89,-0.07 -0.2,-0.07 -0.67,-0.04 -0.83,-0.09 -0.05,-0.02 0.05,-0.01 -0.12,-0.04 -0.09,-0.02 -0.12,-0.01 -0.2,-0.01 -0.09,-0.01 -0.05,0 -0.14,-0.02 -0.01,-0 -0.03,-0.01 -0.04,-0.01 -0.01,-0 -0.03,-0.01 -0.04,-0.02l-1.02 -0.23c-0.01,-0 -0.03,-0.01 -0.04,-0.01l-3.69 -1.8 -0.64 -0.51c-0.05,-0.05 -0.1,-0.11 -0.17,-0.16l-0.24 -0.14c-0.32,-0.25 -1.11,-1.07 -1.32,-1.4l-0.4 -0.47c-0.14,-0.25 -0.55,-0.68 -0.85,-1.27l-0.29 -0.47c-0.01,-0.01 -0.01,-0.03 -0.02,-0.04 -0.01,-0.01 -0.01,-0.03 -0.02,-0.04 -0.02,-0.04 -0.04,-0.08 -0.05,-0.11l-0.04 -0.07c-0.01,-0.01 -0.01,-0.03 -0.02,-0.04l-0.96 -2.58c-0,-0.01 -0.01,-0.03 -0.01,-0.04l-0.11 -0.43c-0,-0.01 -0.01,-0.03 -0.01,-0.04 -0.05,-0.2 -0.12,-0.35 -0.13,-0.58 -0.01,-0.47 -0.03,-0.33 -0.1,-0.61 -0.07,-0.32 0.05,-0.74 -0.05,-1.04l-0.03 -0.08c-0,-0.01 -0.01,-0.03 -0.02,-0.04 -0.03,-0.09 -0.02,-0.09 -0.03,-0.19 -0.01,-0.27 -0,-0.51 0.07,-0.75 0,-0.01 0.01,-0.03 0.02,-0.04 0.08,-0.27 0.01,-0.62 0.02,-0.91 0,-0.17 -0,-0.15 0.04,-0.28l0.03 -0.08c0.06,-0.18 0.01,-0.35 0.06,-0.54 0,-0.01 0.01,-0.03 0.01,-0.04l0.12 -0.58c0,-0.01 0.01,-0.03 0.02,-0.04 0,-0.01 0.01,-0.03 0.01,-0.04l0.21 -0.72c0.04,-0.14 0.02,-0.14 0.05,-0.28l0.13 -0.3c0.01,-0.02 0.03,-0.06 0.03,-0.08l0.2 -0.62c0,-0.01 0.01,-0.03 0.02,-0.04 0.01,-0.01 0.01,-0.02 0.02,-0.04l0.6 -1.19c0.01,-0.01 0.01,-0.03 0.02,-0.04l1.52 -2.18 0.63 -0.62c0.25,-0.25 0.45,-0.45 0.7,-0.71l0.98 -0.76c0.08,-0.06 0.02,-0.02 0.1,-0.06l0.8 -0.5c0.01,-0.01 0.02,-0.02 0.03,-0.02 0.01,-0.01 0.02,-0.01 0.03,-0.02 0.01,-0.01 0.02,-0.01 0.04,-0.02l1.62 -0.77c0.01,-0 0.03,-0.01 0.04,-0.01 0.01,-0 0.03,-0.01 0.04,-0.01 0.01,-0 0.03,-0.01 0.04,-0.01l2.32 -0.67c0.01,-0 0.03,-0.01 0.04,-0.01 0.14,-0.04 0.22,-0.02 0.36,-0.02 0.17,-0 0.15,0.01 0.29,-0.04 0.56,-0.19 1.75,-0.07 2.43,-0.07 0.09,-0 0.25,-0.01 0.33,-0l0.25 0.07c0.2,0.07 0.46,0.03 0.8,0.12l2.39 0.66c0.05,0.02 0.08,0.04 0.11,0.06l0.54 0.22c0.01,0 0.03,0.01 0.04,0.02l0.18 0.09c0.01,0.01 0.02,0.01 0.04,0.02l2.32 1.54c0.58,0.36 1.08,0.99 1.57,1.48 0.05,0.05 0.05,0.05 0.08,0.08 0.02,0.02 0.1,0.09 0.11,0.11 0.04,0.04 0.02,0 0.08,0.08l0.69 0.94c0.04,0.07 0.02,0.04 0.06,0.1l0.78 1.34c0.01,0.01 0.01,0.03 0.02,0.04l0.29 0.58c0.01,0.01 0.01,0.03 0.02,0.04l0.16 0.33c0.02,0.07 0.03,0.1 0.05,0.17 0.04,0.13 0.08,0.13 0.08,0.3l8.59 0c-0.01,-0.31 -0.04,-0.14 -0.08,-0.3l-0.22 -0.87c-0.03,-0.11 -0.02,-0.16 -0.05,-0.28l-0.04 -0.12c-0.01,-0.03 -0.02,-0.07 -0.04,-0.12l-0.07 -0.2c-0,-0.01 -0.01,-0.03 -0.01,-0.04l-0.16 -0.49c-0,-0.01 -0.01,-0.03 -0.01,-0.04 -0,-0.01 -0.01,-0.03 -0.01,-0.04l-0.03 -0.08c-0,-0.01 -0.01,-0.03 -0.01,-0.04l-0.52 -1.33c-0.01,-0.03 -0.03,-0.06 -0.06,-0.11 -0.01,-0.01 -0.01,-0.02 -0.02,-0.04l-0.25 -0.62c-0.01,-0.01 -0.01,-0.03 -0.02,-0.04l-0.81 -1.52c-0.01,-0.01 -0.01,-0.03 -0.02,-0.04 -0.01,-0.01 -0.01,-0.03 -0.02,-0.04 -0.01,-0.02 -0.03,-0.06 -0.04,-0.07l-0.98 -1.46c-0.01,-0.02 -0.05,-0.07 -0.07,-0.09l-0.28 -0.37c-0.06,-0.08 -0.01,-0.02 -0.06,-0.1l-0.26 -0.34c-0.22,-0.27 -0.17,-0.29 -0.49,-0.6l-0.35 -0.46c-0.46,-0.53 -1.02,-1.03 -1.52,-1.52 -0.18,-0.18 -0.39,-0.27 -0.6,-0.49l-0.24 -0.2c-0.01,-0.01 -0.03,-0.01 -0.04,-0.02l-0.1 -0.06c-0.18,-0.12 -0.28,-0.28 -0.47,-0.39 -0.08,-0.05 -0.02,0 -0.1,-0.06 -0.15,-0.12 -0.01,-0.04 -0.16,-0.16l-0.46 -0.3c-0.01,-0.01 -0.03,-0.01 -0.04,-0.02l-0.84 -0.52c-0.39,-0.21 -0.05,-0.09 -0.47,-0.29l-1.34 -0.73c-0.01,-0.01 -0.03,-0.01 -0.04,-0.02l-0.43 -0.22c-0.01,-0.01 -0.03,-0.01 -0.04,-0.02 -0.01,-0.01 -0.02,-0.01 -0.04,-0.02l-0.27 -0.11c-0.02,-0 -0.07,-0.02 -0.09,-0.02l-0.38 -0.17c-0.01,-0 -0.03,-0.01 -0.04,-0.01l-0.46 -0.19c-0.01,-0.01 -0.03,-0.01 -0.04,-0.02 -0.01,-0 -0.03,-0.01 -0.04,-0.01 -0.01,-0 -0.03,-0.01 -0.04,-0.01l-0.17 -0.05c-0.05,-0.02 -0.03,-0.01 -0.08,-0.03l-0.49 -0.16c-0.01,-0 -0.03,-0.01 -0.04,-0.01l-0.37 -0.12c-0.01,-0 -0.03,-0.01 -0.04,-0.01l-0.72 -0.2c-0,-0 -0.08,-0.03 -0.08,-0.03 -0.08,-0.02 -0.03,-0.01 -0.13,-0.03l-0.19 -0.03c-0.01,-0 -0.03,-0.01 -0.04,-0.01 -0.01,-0 -0.03,-0.01 -0.04,-0.02l-0.76 -0.17c-0.3,-0.03 -0.14,-0.03 -0.26,-0.07 -0.2,-0.07 -0.44,-0.04 -0.65,-0.11 -0.06,-0.02 0.03,-0.01 -0.13,-0.03l-0.48 -0.01c-0.17,-0.04 -0.07,-0.02 -0.12,-0.04l-0.08 -0.03c-0.08,-0.02 -0.05,-0.02 -0.14,-0.02 -0.08,-0.01 -0.24,0 -0.33,0 -1.02,0.01 -0.75,-0.08 -1.09,-0.11l-1.25 0c-0.1,-0 -0.23,-0.01 -0.33,-0 -0.22,0.01 -0.3,0.1 -0.48,0.11 -0.08,0.01 -0.24,-0 -0.33,-0 -0.15,-0 -0.51,-0.02 -0.64,0.01l-0.12 0.04c-0.01,0 -0.03,0.01 -0.04,0.02 -0.01,0 -0.03,0.01 -0.04,0.01 -0.29,0.08 -0.39,-0.05 -0.83,0.09 -0.21,0.07 -0.33,0.01 -0.54,0.06 -0.01,0 -0.03,0.01 -0.04,0.01 -0.2,0.06 0.12,-0.03 -0.08,0.03l-0.55 0.11c-0.01,0 -0.03,0.01 -0.04,0.01l-2.89 0.86c-0,0 -0.08,0.04 -0.11,0.06l-0.4 0.14c-0.01,0.01 -0.03,0.01 -0.04,0.02l-2.24 1.08c-0.01,0.01 -0.14,0.11 -0.15,0.12l-1.78 1.15c-0.08,0.06 -0.02,0.01 -0.1,0.06l-0.37 0.29c-0.01,0.01 -0.02,0.01 -0.03,0.02 -0.01,0.01 -0.02,0.01 -0.03,0.02l-0.14 0.08c-0.06,0.04 -0.08,0.07 -0.14,0.13l-0.57 0.46c-0.49,0.5 -0.64,0.53 -0.92,0.82 -0.11,0.11 -0.22,0.22 -0.33,0.33 -0.31,0.31 -0.46,0.46 -0.71,0.81 -0.05,0.07 -0.1,0.12 -0.16,0.17 -0.1,0.1 -0.18,0.18 -0.3,0.3 -0.07,0.07 -0.09,0.08 -0.14,0.13l-0.19 0.3c-0.07,0.08 -0.04,0.04 -0.08,0.08l-1.43 1.99c-0.01,0.01 -0.01,0.02 -0.02,0.03l-1.52 3.05c-0.02,0.05 -0.04,0.08 -0.06,0.11l-0.45 1.23c-0,0.01 -0.01,0.03 -0.01,0.04 -0.13,0.39 -0.29,0.8 -0.37,1.2 -0,0.02 -0,0.03 -0.01,0.05 -0,0.02 -0.01,0.03 -0.01,0.04l-0.52 2.36c-0,0.53 -0.11,0.37 -0.1,1.15l-0.04 0.34c-0.17,0.5 -0.07,2.02 -0.07,2.65 -0,0.87 0.11,0.72 0.11,1.14 -0,0.78 0.1,0.61 0.1,1.15l0.8 3.33c0,0.01 0.01,0.03 0.01,0.04l0.26 0.77c0.02,0.05 0.02,0.07 0.04,0.12l1.54 3.24c0.04,0.05 0,-0 0.06,0.1 0.01,0.01 0.01,0.03 0.02,0.04l0.74 1.22c0.1,0.11 0.03,-0 0.14,0.14 0.06,0.08 0.02,0.02 0.06,0.1 0.33,0.56 0.46,0.58 0.61,0.8l0.28 0.38c0.16,0.15 0.24,0.36 0.41,0.52l2.42 2.36c0.18,0.1 0.68,0.59 1.01,0.78 0.08,0.05 0.02,-0 0.1,0.06l1.33 0.9c0.01,0.01 0.05,0.04 0.06,0.05l1.44 0.78c0.13,0.07 -0.11,-0.05 0.07,0.04l0.18 0.09c0.04,0.02 0.08,0.04 0.11,0.05l0.22 0.11c0.01,0.01 0.03,0.01 0.04,0.02l0.22 0.11c0.01,0.01 0.02,0.01 0.04,0.02l0.11 0.06c0.01,0.01 0.02,0.01 0.04,0.02 0.02,0.01 0.06,0.03 0.08,0.03l0.36 0.13c0.03,0.01 0.1,0.06 0.11,0.06l1.15 0.42c0.01,0 0.03,0.01 0.04,0.01l2.47 0.68c0.05,0.02 0,0.01 0.13,0.03l0.81 0.11c0.43,0.03 -0.09,0.07 0.82,0.1 0.33,0.01 0.31,0.12 0.81,0.11l3.77 -0.09c0.08,-0.02 0.05,-0.02 0.14,-0.02 0.25,-0.02 0.45,0.01 0.69,-0.07 0.06,-0.02 -0.03,-0.01 0.13,-0.03 0.26,-0.03 0.29,0 0.52,-0.07 0.22,-0.07 0.36,-0.01 0.58,-0.08l0.39 -0.1c0.01,-0 0.03,-0.01 0.04,-0.01l0.43 -0.11c0.01,-0 0.03,-0.01 0.04,-0.02l0.08 -0.03c0.1,-0.03 0.13,-0.02 0.23,-0.04l0.8 -0.23c0.01,-0 0.03,-0.01 0.04,-0.01l0.24 -0.08c0.01,-0 0.03,-0.01 0.04,-0.01l0.08 -0.03c0.01,-0 0.03,-0.01 0.04,-0.01l0.29 -0.09c0.41,-0.18 0.87,-0.32 1.27,-0.53l0.07 -0.04c0.01,-0.01 0.02,-0.01 0.04,-0.02 0.01,-0.01 0.02,-0.01 0.04,-0.02l0.11 -0.05c0.01,-0 0.03,-0.01 0.04,-0.02 0.01,-0 0.03,-0.01 0.04,-0.01l0.39 -0.15c0.01,-0.01 0.02,-0.01 0.04,-0.02l0.36 -0.18c0.01,-0.01 0.03,-0.01 0.04,-0.02 0.01,-0.01 0.03,-0.01 0.04,-0.02l0.98 -0.55c0.01,-0.01 0.02,-0.02 0.03,-0.02l1.32 -0.86c0.01,-0.01 0.02,-0.02 0.03,-0.02 0.01,-0.01 0.02,-0.01 0.03,-0.02l0.14 -0.08c0.02,-0.01 0.13,-0.1 0.15,-0.12 0.07,-0.04 0.04,-0.02 0.11,-0.06l0.62 -0.47c0.05,-0.05 0.1,-0.12 0.16,-0.17l0.65 -0.54c0.05,-0.05 0.11,-0.11 0.16,-0.16l0.33 -0.27c0.2,-0.11 0.35,-0.3 0.52,-0.46 0.24,-0.24 0.43,-0.42 0.61,-0.7 0.01,-0.01 0.01,-0.02 0.02,-0.03 0.01,-0.01 0.05,-0.06 0.08,-0.09l1.1 -1.29c0.01,-0.01 0.01,-0.02 0.02,-0.03l0.29 -0.37c0.05,-0.08 -0,-0.02 0.06,-0.1 0.07,-0.08 0.04,-0.04 0.08,-0.08l0.4 -0.58c0.01,-0.01 0.01,-0.02 0.02,-0.03 0.01,-0.01 0.02,-0.02 0.02,-0.03l0.46 -0.73c0.04,-0.08 0.02,-0.05 0.06,-0.11 0.01,-0.02 0.11,-0.14 0.12,-0.15 0.01,-0.01 0.02,-0.02 0.02,-0.03l0.82 -1.63c0.01,-0.01 0.01,-0.02 0.02,-0.04l0.2 -0.4c0.01,-0.01 0.01,-0.03 0.02,-0.04l0.17 -0.37c0.02,-0.06 0.01,-0.06 0.04,-0.13l0.12 -0.26c0.01,-0.01 0.01,-0.03 0.02,-0.04 0,-0.01 0.01,-0.03 0.02,-0.04l0.09 -0.29c0,-0.01 0.01,-0.03 0.02,-0.04l0.3 -0.79c0,-0.01 0.02,-0.07 0.03,-0.08l0.3 -1.01c0.01,-0.02 0.02,-0.06 0.03,-0.08l0.14 -0.52c0.02,-0.1 0.01,-0.21 0.01,-0.32z"/>
   <path class="fil1" d="M50.77 29.52c-0.08,0.24 0.05,0.79 -0.02,1.06l-0.08 0.62c-0.01,0.09 -0,0.06 -0.02,0.14l-0.05 0.12c-0.07,0.22 -0.04,0.43 -0.11,0.65l-0.08 0.47c-0.05,0.15 -0.01,-0.1 -0.06,0.16 -0.03,0.14 0,0.2 -0.04,0.34 -0,0.01 -0.01,0.03 -0.01,0.04l-0.11 0.43c-0,0.01 -0.01,0.03 -0.02,0.04l-0.11 0.44c-0,0.01 -0.01,0.03 -0.02,0.04l-0.73 2.2c-0.01,0.01 -0.01,0.03 -0.02,0.04l-0.23 0.69c-0,0 -0.04,0.09 -0.06,0.11l-0.26 0.51c-0,0.01 -0.01,0.03 -0.02,0.04l-0.03 0.08c-0,0.01 -0.01,0.03 -0.01,0.04l-0.16 0.38c-0.01,0.01 -0.01,0.03 -0.02,0.04 -0.01,0.01 -0.01,0.03 -0.02,0.04l-0.05 0.11c-0,0 -0.04,0.07 -0.04,0.07 -0.02,0.04 -0.05,0.1 -0.07,0.14l-0.53 0.94c-0.01,0.01 -0.01,0.03 -0.02,0.04l-0.52 0.94c-0.01,0.01 -0.01,0.02 -0.02,0.03l-0.42 0.62c-0.01,0.01 -0.01,0.02 -0.02,0.03l-0.38 0.55c-0.01,0.01 -0.01,0.03 -0.02,0.04l-0.71 0.97c-0.1,0.15 -0.27,0.24 -0.36,0.4l-0.86 1.04c-0.23,0.29 -1.07,1.12 -1.37,1.3l-1.05 0.9c-0,0 -0.06,0.06 -0.08,0.08 -0.06,0.06 -0.05,0.05 -0.11,0.11l-2.13 1.51c-0.01,0.01 -0.02,0.01 -0.03,0.02l-0.51 0.3c-0.01,0.01 -0.03,0.01 -0.04,0.02l-1.88 1c-0.01,0.01 -0.03,0.01 -0.04,0.02l-0.74 0.35c-0.06,0.02 -0.07,0.01 -0.13,0.04 -0.01,0 -0.03,0.01 -0.04,0.01l-0.22 0.11c0,0 -0.07,0.04 -0.07,0.04 -0.01,0.01 -0.02,0.01 -0.04,0.02 -0.01,0.01 -0.02,0.01 -0.04,0.02l-2.19 0.75c-0.05,0.02 -0.07,0.02 -0.12,0.04l-0.87 0.22c-0.01,0 -0.03,0.01 -0.04,0.01 -0.39,0.12 -1.06,0.27 -1.4,0.29l-0.92 0.16c-0.05,0.02 0.04,0.01 -0.12,0.04 -0.07,0.01 -0.14,0.01 -0.2,0.01 -0.78,0.01 -0.66,0.11 -1.03,0.11 -0.25,-0 -0.51,-0 -0.76,-0 -0.53,0 -2.97,0.06 -3.3,-0.01 -0.31,-0.07 0.09,-0.04 -0.29,-0.1l-0.54 -0.01c-0.25,-0.04 -0.15,-0.1 -0.43,-0.11 -0.12,-0 -0.25,0.02 -0.37,-0.01 -0.31,-0.07 0.1,-0.04 -0.29,-0.09l-1.52 -0.33c-0.06,-0.01 -0.08,-0.01 -0.14,-0.02l-1.01 -0.3c-0.02,-0 -0.03,-0 -0.05,-0.01l-0.19 -0.03c-0.01,-0 -0.03,-0.01 -0.04,-0.01l-1.15 -0.42c-0.01,-0 -0.03,-0.01 -0.04,-0.01 -0.01,-0 -0.03,-0.01 -0.04,-0.01l-0.83 -0.31c-0.01,-0 -0.03,-0.01 -0.04,-0.02l-0.25 -0.13c-0.01,-0.01 -0.03,-0.01 -0.04,-0.02l-2.68 -1.39c-0.01,-0.01 -0.03,-0.01 -0.04,-0.02 -0.07,-0.04 -0.05,-0.02 -0.11,-0.06l-0.55 -0.38c-0.01,-0.01 -0.02,-0.01 -0.04,-0.02l-0.07 -0.04c-0.01,-0.01 -0.02,-0.01 -0.03,-0.02l-0.45 -0.31c-0.01,-0.01 -0.02,-0.02 -0.03,-0.02l-0.43 -0.33c-0.01,-0.01 -0.02,-0.01 -0.03,-0.02l-0.69 -0.51c-0.05,-0.05 -0.1,-0.12 -0.16,-0.17 -0.24,-0.21 -0.29,-0.17 -0.63,-0.51 -0.08,-0.08 -0.12,-0.13 -0.19,-0.19l-0.43 -0.33c-0.32,-0.33 -1.28,-1.19 -1.48,-1.51 -0.2,-0.32 -0.44,-0.45 -0.63,-0.73l-1.06 -1.38c-0.12,-0.15 0.07,0.11 -0.04,-0.06l-0.04 -0.07c-0.01,-0.01 -0.01,-0.03 -0.02,-0.04l-1.01 -1.6c-0.01,-0.01 -0.01,-0.03 -0.02,-0.04 -0.01,-0.01 -0.01,-0.03 -0.02,-0.04 -0.01,-0.01 -0.03,-0.06 -0.04,-0.07l-0.45 -0.8c-0.01,-0.01 -0.01,-0.03 -0.02,-0.04l-0.94 -1.99c-0.01,-0.01 -0.01,-0.02 -0.02,-0.04l-0.33 -0.87c-0,-0.01 -0.01,-0.03 -0.02,-0.04l-0.41 -1.22c-0,-0.01 -0.01,-0.03 -0.01,-0.04 -0.01,-0.02 -0.02,-0.06 -0.03,-0.08l-0.69 -2.89c-0,-0.05 0,-0.11 -0,-0.16 -0.03,-0.25 -0.1,-0.15 -0.11,-0.44 -0,-0.12 0.02,-0.25 -0.01,-0.37 -0.05,-0.24 -0.11,-0.1 -0.1,-0.66 0.01,-0.72 -0.11,-0.64 -0.11,-1.41 0,-0.47 -0.06,-2.34 0,-2.77 0.05,-0.37 0.11,-0.1 0.11,-0.82 -0.01,-0.56 0.05,-0.42 0.1,-0.66l0.07 -0.64c0.02,-0.06 0.01,0.06 0.04,-0.12l0.02 -0.37c0.04,-0.27 0.02,-0.08 0.05,-0.17 0.02,-0.05 0.01,0.05 0.04,-0.12 0.02,-0.08 0.01,-0.08 0.01,-0.15 0.03,-0.3 0.09,-0.45 0.18,-0.75l0.08 -0.36c0,-0.01 0.01,-0.03 0.02,-0.04l1.13 -3.38c0.02,-0.06 0.01,-0.07 0.04,-0.13l1.37 -2.76c0.04,-0.07 0.02,-0.04 0.06,-0.1l0.22 -0.33c0,-0 0.03,-0.07 0.03,-0.07l1.06 -1.55c0.01,-0.01 0.02,-0.02 0.02,-0.03l0.14 -0.19c0.01,-0.01 0.01,-0.03 0.02,-0.04l1 -1.28c0.78,-0.83 1.62,-1.6 2.42,-2.42l0.31 -0.24c0.23,-0.14 0.25,-0.25 0.58,-0.45 0.01,-0.01 0.02,-0.01 0.03,-0.02 0.02,-0.02 0.09,-0.08 0.12,-0.1 0.06,-0.06 0.11,-0.13 0.19,-0.19 0.08,-0.06 0.02,-0.01 0.1,-0.06l1.41 -0.98c0.01,-0.01 0.02,-0.01 0.04,-0.02l2.69 -1.5c0.01,-0 0.03,-0.01 0.04,-0.01l0.35 -0.14c0.01,-0.01 0.02,-0.01 0.04,-0.02l0.47 -0.24c0.01,-0.01 0.03,-0.01 0.04,-0.02 0.01,-0 0.03,-0.01 0.04,-0.01l0.29 -0.09c0,-0 0.08,-0.04 0.11,-0.06l0.07 -0.04c0.01,-0.01 0.03,-0.01 0.04,-0.02l0.57 -0.19c0.01,-0 0.03,-0.01 0.04,-0.01l0.98 -0.33c0.01,-0 0.03,-0.01 0.04,-0.01 0.01,-0 0.03,-0.01 0.04,-0.01l2.41 -0.58c0.28,-0.06 -0.04,-0.05 0.29,-0.09 0.12,-0.02 0.24,0.01 0.37,-0.01 0.32,-0.07 -0.08,-0.02 0.24,-0.09 0.12,-0.03 0.25,-0 0.37,-0.01 0.31,-0.01 0.33,-0.12 0.65,-0.11 0.25,0 0.54,0.04 0.78,-0.03l0.25 -0.07c0.1,-0.01 0.27,0 0.38,0l2.23 -0c0.72,-0.01 0.34,0.11 1.36,0.11l0.42 0.07c0.18,0.06 0.37,0.01 0.56,0.04 0.39,0.05 -0.03,0.03 0.29,0.09l2.3 0.47c0.01,0 0.03,0.01 0.04,0.01l1.37 0.42c0.01,0 0.03,0.01 0.04,0.01l0.08 0.03c0.01,0 0.03,0.01 0.04,0.01l1.26 0.48c0.01,0.01 0.02,0.01 0.04,0.02l1.16 0.52c0.01,0.01 0.03,0.01 0.04,0.02l0.54 0.27c0.02,0.01 0.06,0.03 0.07,0.04 0.01,0.01 0.03,0.01 0.04,0.02 0.02,0.01 0.06,0.03 0.07,0.04l2.18 1.3c0.07,0.04 0.04,0.02 0.1,0.06l0.58 0.4c0.06,0.04 0.04,0.01 0.11,0.06l0.87 0.65c0.22,0.14 0.36,0.38 0.58,0.51l1.63 1.58c0.13,0.13 0.25,0.25 0.38,0.38 0.07,0.07 0.11,0.11 0.19,0.19 0.22,0.22 0.36,0.48 0.57,0.68 0.02,0.02 0.1,0.09 0.11,0.11l0.29 0.41c0.06,0.07 0.15,0.13 0.19,0.19l0.33 0.44c0.01,0.02 0.05,0.06 0.07,0.09 0.05,0.07 0.02,0.04 0.06,0.11 0.26,0.43 0.6,0.78 0.83,1.24 0.01,0.01 0.03,0.06 0.04,0.07 0.01,0.01 0.01,0.02 0.02,0.03l0.29 0.47c0.06,0.11 0.03,0.05 0.06,0.1l0.93 1.73c0,0.01 0.01,0.03 0.01,0.04l0.21 0.44c0.01,0.01 0.01,0.03 0.02,0.04l0.05 0.11c0.02,0.04 0.04,0.07 0.05,0.11 0.08,0.16 -0.05,-0.09 0.04,0.07l0.09 0.18c0.01,0.01 0.01,0.03 0.02,0.04l0.51 1.34c0.01,0.01 0.01,0.03 0.02,0.04l0.41 1.33c0,0.01 0.01,0.03 0.01,0.04l0.12 0.48c0,0.01 0.01,0.03 0.02,0.04 0,0.01 0.01,0.03 0.01,0.04 0.02,0.09 0.01,0.06 0.03,0.14l0.05 0.22c0,0.01 0.01,0.03 0.02,0.04l0.11 0.43c0,0.01 0.01,0.03 0.01,0.04l0.14 0.84c0.05,0.39 0.03,-0.03 0.09,0.29l0.23 1.62c0.02,1.22 0.03,0.57 0.1,1.04 0.01,0.09 0,0.28 0,0.38 -0.01,0.76 0.06,1.88 0,2.61 -0.03,0.43 -0.04,0.07 -0.11,0.27zm-25.19 -29.52l0.44 0 0.01 0 3.05 0c0.17,0.01 0.3,0.03 0.37,0.05 0.09,0.03 -0.1,0.01 0.17,0.05 0.04,0.01 0.16,0.01 0.21,0.01 0.66,-0.01 0.47,0.06 0.77,0.1 0.13,0.02 0.3,-0.01 0.43,0.01 0.4,0.06 -0.07,0.05 0.33,0.1 0.17,0.02 0.41,-0.01 0.56,0.04l0.91 0.18c0.23,0.02 0.11,0.05 0.34,0.09 0.17,0.03 0.2,-0 0.38,0.05l1.83 0.51c0.02,0 0.03,0 0.05,0.01 0.02,0 0.03,0.01 0.04,0.01l0.69 0.23c0.01,0 0.03,0.01 0.04,0.01l2.14 0.85c0.16,0.08 -0.09,-0.04 0.07,0.04l0.43 0.22c0.03,0.02 0.03,0.02 0.07,0.04 0.02,0.01 0.05,0.03 0.07,0.04 0.02,0.01 0.05,0.03 0.07,0.04 0.04,0.02 0.1,0.05 0.14,0.07l1.3 0.65c0.02,0.01 0.06,0.03 0.07,0.04l0.33 0.22c0.04,0.03 0.1,0.05 0.14,0.08l2.17 1.41c0.01,0.01 0.02,0.01 0.03,0.02l1.24 0.99c0.01,0.01 0.02,0.01 0.04,0.02 0.01,0.01 0.03,0.01 0.04,0.02 0.19,0.11 0.39,0.43 0.69,0.61 0.59,0.37 1.53,1.45 2.08,1.99l0.89 1.02c0.14,0.23 0.32,0.36 0.43,0.54l0.14 0.24c0.06,0.07 -0,0 0.08,0.08 0.09,0.09 0.14,0.12 0.21,0.23l0.82 1.19c0.01,0.01 0.01,0.02 0.02,0.03l0.45 0.69c0.01,0.01 0.01,0.03 0.02,0.04 0.01,0.01 0.01,0.03 0.02,0.04l0.84 1.44c0,0 0.1,0.12 0.1,0.12 0.01,0.01 0.02,0.02 0.02,0.03l0.33 0.65c0.02,0.04 0.05,0.1 0.07,0.14l0.09 0.18c0.01,0.01 0.01,0.03 0.02,0.04l0.22 0.54c0.13,0.36 0.22,0.37 0.36,0.73l0.81 2.23c0,0.01 0.01,0.03 0.01,0.04l0.11 0.33c0,0.01 0.01,0.03 0.01,0.04l0.22 0.76c0,0.01 0.01,0.03 0.02,0.04 0,0.01 0.01,0.03 0.01,0.04 0,0.01 0.01,0.03 0.01,0.04l0.36 1.6c0.06,0.39 0.04,-0.06 0.1,0.34l0.19 1.06c0.07,0.21 0.03,0.54 0.11,0.76 0.09,0.26 0.01,0.68 0.11,0.98 0.04,0.11 0.03,0.02 0.04,0.18 0.01,0.1 -0,0.28 -0,0.38 -0.01,1.32 0.04,0.78 0.11,1.2 0.04,0.31 0.04,1.52 -0.05,1.79l-0.06 0.27c-0.01,0.27 0,0.6 0,0.87 0,0.53 -0.11,0.67 -0.11,1.2l-0.17 1.03c-0.07,0.2 -0.03,0.42 -0.09,0.61l-0.08 0.57c-0.05,0.26 -0.01,0.01 -0.06,0.16l-0.43 1.85c-0,0.01 -0.01,0.03 -0.01,0.04l-0.08 0.24c-0,0.01 -0.01,0.03 -0.01,0.04l-0.43 1.42c-0,0.01 -0.01,0.03 -0.01,0.04l-0.17 0.43c-0.01,0.01 -0.01,0.03 -0.02,0.04l-0.08 0.25c-0,0.01 -0.01,0.03 -0.01,0.04 -0.01,0.02 -0.02,0.06 -0.03,0.08l-0.62 1.45c-0.08,0.17 0.05,-0.09 -0.04,0.07 -0.01,0.02 -0.07,0.13 -0.07,0.14l-0.2 0.51c-0.01,0.01 -0.01,0.02 -0.02,0.04l-0.42 0.77c-0.05,0.07 -0.04,0.05 -0.09,0.13l-0.2 0.4c-0.01,0.01 -0.01,0.03 -0.02,0.04l-0.07 0.15c-0.02,0.04 -0.05,0.1 -0.08,0.14l-0.18 0.25c-0.01,0.01 -0.03,0.06 -0.04,0.07l-0.23 0.37c-0.01,0.01 -0.02,0.02 -0.02,0.03 -0.01,0.01 -0.01,0.02 -0.02,0.03l-0.2 0.29c-0.01,0.01 -0.01,0.02 -0.02,0.03l-0.11 0.22c-0.01,0.01 -0.03,0.06 -0.04,0.07l-0.26 0.39c-0.01,0.01 -0.04,0.05 -0.05,0.06l-0.2 0.23c-0.01,0.01 -0.01,0.03 -0.02,0.04l-0.22 0.33c-0.2,0.35 -0.59,0.72 -0.8,1.05 -0.11,0.17 0.07,-0.09 -0.04,0.06l-0.39 0.48c-0.06,0.1 -0.12,0.14 -0.21,0.23 -0.47,0.46 -0.49,0.61 -0.79,0.9 -0.33,0.32 -1.08,1.18 -1.4,1.38l-0.9 0.78c-0.01,0.01 -0.06,0.03 -0.07,0.04l-2.18 1.68c-0.08,0.05 -0.06,0.03 -0.14,0.08l-0.36 0.24c-0,0 -0.12,0.1 -0.12,0.1l-0.17 0.1c-0.01,0.01 -0.03,0.01 -0.04,0.02l-4.75 2.38c-0.02,0.01 -0.06,0.03 -0.08,0.03l-0.87 0.32c-0.01,0 -0.03,0.01 -0.04,0.01 -0.01,0 -0.03,0.01 -0.04,0.01l-0.94 0.31c-0.1,0.02 -0.1,0.01 -0.19,0.03l-0.53 0.17c-0.01,0 -0.03,0.01 -0.04,0.01l-0.39 0.09c-0.01,0 -0.03,0.01 -0.04,0.01l-0.52 0.13c-0.07,0.01 -0.13,0 -0.21,0.01l-1.8 0.32c-0.24,0.02 -0.11,0.05 -0.34,0.1 -0.28,0.06 -0.52,-0.01 -0.79,0.08 -0.37,0.13 -0.88,-0.05 -1.27,0.09 -0.33,0.12 -2.86,0.09 -3.08,0.03l-1.38 -0.14c-0.16,-0.06 -0.62,-0.02 -0.83,-0.09l-0.08 -0.03c-0.01,-0 -0.03,-0.01 -0.04,-0.01 -0.22,-0.06 -0.48,-0.02 -0.72,-0.09l-0.54 -0.11c-0.18,-0.06 -0.21,-0.02 -0.38,-0.05 -0.26,-0.05 -0.01,-0.01 -0.16,-0.06 -0.13,-0.04 -0.01,-0.02 -0.18,-0.04 -0.35,-0.04 -0.54,-0.12 -0.88,-0.2l-0.35 -0.08c-0.07,-0.02 -0.03,-0.01 -0.13,-0.03l-0.88 -0.26c-0.01,-0 -0.03,-0.01 -0.04,-0.01l-1.38 -0.46c-0.07,-0.02 -0.1,-0.03 -0.17,-0.05 -0.12,-0.04 -0.02,-0 -0.12,-0.05l-1.3 -0.55c-0.01,-0.01 -0.03,-0.01 -0.04,-0.02l-1.49 -0.74c-0.04,-0.02 -0.1,-0.05 -0.15,-0.07 0,0 -0.07,-0.04 -0.07,-0.04l-0.64 -0.34c-0.05,-0.04 -0.1,-0.08 -0.12,-0.1l-0.87 -0.49c-0.01,-0.01 -0.02,-0.01 -0.03,-0.02 -0.01,-0.01 -0.02,-0.02 -0.03,-0.02l-0.19 -0.14c-0.01,-0 -0.06,-0.03 -0.07,-0.04 -0.01,-0.01 -0.02,-0.01 -0.03,-0.02l-1.31 -0.92c-0.04,-0.02 -0.03,-0.01 -0.07,-0.04l-0.98 -0.76c-0.01,-0.01 -0.02,-0.01 -0.04,-0.02l-0.39 -0.37c-0,-0 -0.12,-0.09 -0.12,-0.1 -0.08,-0.05 -0.06,-0.02 -0.14,-0.08l-2.59 -2.57c-0.02,-0.02 -0.09,-0.09 -0.1,-0.12l-0.5 -0.59c-0.01,-0.01 -0.04,-0.05 -0.05,-0.06l-0.04 -0.07c-0.12,-0.21 -0.32,-0.34 -0.43,-0.54l-0.04 -0.07c-0.01,-0.01 -0.01,-0.03 -0.02,-0.04 -0.11,-0.17 0.08,0.09 -0.04,-0.06l-1.33 -1.88c-0.01,-0.01 -0.04,-0.05 -0.05,-0.06l-0.8 -1.37c-0.04,-0.07 0,0 -0.04,-0.07l-0.29 -0.58c-0.21,-0.42 -0.18,-0.21 -0.38,-0.76 -0.01,-0.02 -0.03,-0.06 -0.03,-0.08 -0,-0.01 -0.07,-0.13 -0.07,-0.14l-0.47 -0.94c-0,-0.01 -0.01,-0.03 -0.01,-0.04 -0,-0.01 -0.01,-0.03 -0.01,-0.04l-0.64 -1.7c-0,-0.01 -0.01,-0.03 -0.01,-0.04l-0.22 -0.65c-0.02,-0.07 -0.03,-0.11 -0.05,-0.17 -0.01,-0.02 -0.02,-0.06 -0.03,-0.08l-0.11 -0.33c-0,-0.01 -0.01,-0.03 -0.01,-0.04l-0.22 -0.76c-0,-0.01 -0.01,-0.03 -0.01,-0.04l-0.16 -0.71c-0,-0.01 -0.01,-0.03 -0.02,-0.04 -0.01,-0.04 -0.02,0.05 -0.05,-0.17l-0.4 -2.15c-0.08,-0.23 0,-0.56 -0.08,-0.79l-0.07 -0.36c-0,-0.14 0.01,-0.3 0.01,-0.44 -0,-0.07 -0,-0.14 -0.01,-0.2 -0.06,-0.28 -0.05,0.04 -0.1,-0.29l-0 -0.65 0 -3.31c0.01,-0.07 0.01,-0.12 0.02,-0.15 0.1,-0.35 0.07,-0.41 0.08,-0.79 0,-0.1 0,-0.1 0.03,-0.19l0.03 -0.08c0,-0.01 0.01,-0.03 0.02,-0.04 0.07,-0.21 0.01,-0.44 0.04,-0.67 0.04,-0.27 0.02,-0.08 0.05,-0.17l0.9 -3.99c0.13,-0.39 0.19,-0.78 0.37,-1.15 0.01,-0.01 0.01,-0.02 0.02,-0.04 0.01,-0.01 0.01,-0.03 0.02,-0.04 0.01,-0.01 0.01,-0.03 0.02,-0.04l0.16 -0.49c0,-0.01 0.01,-0.03 0.01,-0.04 0,-0.01 0.01,-0.03 0.01,-0.04 0.02,-0.05 0.01,-0.03 0.03,-0.08l0.22 -0.54c0,-0.01 0.01,-0.03 0.01,-0.04l0.42 -0.94c0.03,-0.09 0.02,-0.08 0.05,-0.17l1.55 -2.91c0.01,-0.01 0.02,-0.02 0.02,-0.03 0,-0 0.1,-0.12 0.1,-0.12 0.01,-0.01 0.02,-0.02 0.02,-0.03l0.16 -0.33c0.01,-0.01 0.01,-0.02 0.02,-0.03l0.34 -0.48c0.01,-0.01 0.02,-0.02 0.02,-0.03 0.01,-0.01 0.01,-0.02 0.02,-0.03l0.89 -1.23c0.08,-0.15 0.24,-0.22 0.4,-0.47 0.21,-0.34 0.48,-0.55 0.6,-0.76l0.06 -0.1c0.2,-0.25 0.5,-0.49 0.74,-0.73 0.02,-0.02 0.09,-0.09 0.1,-0.12l1.11 -1.17c0.01,-0.01 0.06,-0.03 0.07,-0.04l0.87 -0.81c0.01,-0.01 0.02,-0.01 0.03,-0.02 0.01,-0.01 0.06,-0.03 0.07,-0.04l0.4 -0.36c0.02,-0.02 0.09,-0.09 0.12,-0.1 0.01,-0.01 0.02,-0.01 0.03,-0.02l0.11 -0.06c0.08,-0.05 0.02,-0 0.1,-0.06 0.09,-0.07 0.13,-0.14 0.22,-0.22l0.26 -0.17c0.22,-0.14 0.22,-0.21 0.33,-0.27l1.74 -1.14c0.01,-0.01 0.02,-0.02 0.03,-0.02l0.51 -0.3c0.01,-0.01 0.02,-0.02 0.03,-0.02l0.33 -0.21c0.01,-0.01 0.03,-0.01 0.04,-0.02l0.76 -0.43c0.04,-0.02 0.1,-0.05 0.15,-0.07l0.22 -0.11c0,-0 0.07,-0.04 0.07,-0.04l0.33 -0.16c0.01,-0.01 0.03,-0.01 0.04,-0.02l2.36 -1.01c0.09,-0.03 0.07,-0.02 0.17,-0.05l0.49 -0.16c0.05,-0.02 0.1,-0.03 0.17,-0.05l0.89 -0.3c0.01,-0 0.03,-0.01 0.04,-0.01 0.01,-0 0.03,-0.01 0.04,-0.01l0.48 -0.12c0.01,-0 0.03,-0.01 0.04,-0.01l0.43 -0.11c0.01,-0 0.03,-0.01 0.04,-0.02l0.17 -0.05c0.09,-0.02 0.09,-0.01 0.19,-0.03 0.01,-0 0.03,-0.01 0.04,-0.01l0.08 -0.03c0.01,-0 0.03,-0.01 0.04,-0.01l0.73 -0.14c0.22,-0.03 0.77,-0.21 1.04,-0.21 0.35,-0 0.42,-0.11 0.76,-0.11 0.29,-0 0.32,-0.04 0.56,-0.1 0.29,-0.06 0.71,0.1 0.97,-0.07l0.36 -0.05z"/>
   <path class="fil1" d="M36.2 32.4c-0.01,-0 -0.03,-0.03 -0.03,-0.02 -0.01,0.01 -0.03,-0.02 -0.03,-0.02 -0.35,-0.16 -3.27,-0.07 -3.79,-0.07 -0.21,-0 -0.47,-0.01 -0.64,0.07l-2.1 1.32c-0.01,0 -0.03,0.01 -0.04,0.01l-0.25 0.08c-0.04,0.01 -0.07,0.02 -0.12,0.04l-0.24 0.09c-0.14,0.04 -0.21,0.01 -0.34,0.04 -0.17,0.03 -0.29,0.1 -0.55,0.1 -0.09,-0 -0.25,-0.01 -0.33,-0 -0.31,0.03 -0.32,0.17 -0.69,0.04 -0.06,-0.02 0.03,-0.01 -0.13,-0.04 -0.18,-0.03 -0.46,0.02 -0.65,-0.01l-1.51 -0.5c-0.03,-0.02 -0.06,-0.03 -0.11,-0.05 -0.01,-0.01 -0.03,-0.01 -0.04,-0.02 -0,-0 -0.07,-0.04 -0.07,-0.04l-1.23 -0.78c-0.01,-0.01 -0.03,-0.01 -0.04,-0.02l-0.8 -0.83c-0.11,-0.17 -0.26,-0.24 -0.36,-0.4 -0.01,-0.01 -0.01,-0.02 -0.02,-0.03l-0.66 -1.24c-0.02,-0.05 -0.02,-0.07 -0.04,-0.13l-0.34 -1.24c-0.11,-0.33 -0.07,-1.1 -0.07,-1.56 -0,-0.44 0.18,-1.34 0.35,-1.67l0.11 -0.32c0,-0.01 0.01,-0.03 0.01,-0.04l0.43 -0.87c0.2,-0.3 0.39,-0.63 0.64,-0.88 0.28,-0.27 0.54,-0.61 0.88,-0.81l0.87 -0.6c0.01,-0.01 0.03,-0.01 0.04,-0.02l1.03 -0.44c0.05,-0.02 0.07,-0.02 0.12,-0.04 0.54,-0.18 0.91,-0.16 1.21,-0.26l0.4 -0.04c0.22,0 0.44,-0.01 0.66,-0 0.17,0 0.15,-0 0.28,0.04 0.21,0.07 0.4,0.04 0.61,0.09l1.09 0.38c0.03,0.02 0.06,0.03 0.11,0.05l1.2 0.65c0.18,0.11 0.29,0.28 0.45,0.42l0.38 0.32 4.46 0 -0.18 -0.36c-0.01,-0.01 -0.01,-0.03 -0.02,-0.04 -0.04,-0.07 -0.02,-0.04 -0.06,-0.1l-0.35 -0.58c-0,-0 -0.05,-0.06 -0.07,-0.09l-0.57 -0.79c-0.01,-0.01 -0.04,-0.04 -0.06,-0.05l-0.22 -0.21c-0.18,-0.21 -0.26,-0.45 -0.62,-0.74 -0.15,-0.12 0.11,0.07 -0.06,-0.04l-0.32 -0.23c-0.04,-0.05 -0.05,-0.06 -0.08,-0.08l-0.6 -0.49c-0.12,-0.11 -0.03,-0.03 -0.16,-0.11l-1.45 -0.83c-0.03,-0.01 -0.06,-0.03 -0.11,-0.06l-0.36 -0.13c-0.01,-0 -0.03,-0.01 -0.04,-0.02l-0.07 -0.04c-0.03,-0.01 -0.1,-0.06 -0.11,-0.06l-1.04 -0.31c-0.01,-0 -0.03,-0.01 -0.04,-0.01 -0.01,-0 -0.03,-0.01 -0.04,-0.02l-1.19 -0.17c-0.26,-0.05 -0.3,-0.1 -0.61,-0.1 -0.36,0 -0.73,0 -1.09,0 -0.45,-0 -0.38,0.03 -0.72,0.1 -0.2,0.04 -0.41,-0.02 -0.6,0.05l-0.35 0.09c-0.01,0 -0.03,0.01 -0.04,0.01l-0.92 0.27c-0.01,0 -0.03,0.01 -0.04,0.01l-0.12 0.04c-0.01,0 -0.03,0.01 -0.04,0.01 -0.01,0 -0.03,0.01 -0.04,0.01l-0.21 0.07c-0.01,0 -0.03,0.01 -0.04,0.01l-0.77 0.38c-0.03,0.02 -0.07,0.03 -0.11,0.05l-0.65 0.33c-0.01,0.01 -0.02,0.01 -0.03,0.02 -0.01,0.01 -0.02,0.02 -0.03,0.02l-0.79 0.57c-0.01,0.01 -0.04,0.04 -0.06,0.05l-0.27 0.16c-0.36,0.28 -0.94,0.93 -1.23,1.22l-0.51 0.69c-0.1,0.17 -0.23,0.24 -0.31,0.4l-0.05 0.11c-0.01,0.01 -0.01,0.03 -0.02,0.04 -0.01,0.01 -0.01,0.03 -0.02,0.04l-0.71 1.3c-0.05,0.1 -0.01,-0 -0.05,0.12l-0.22 0.54c-0,0.01 -0.01,0.03 -0.01,0.04l-0.07 0.2c-0,0.01 -0.01,0.03 -0.01,0.04l-0.05 0.27c-0,0.02 -0.01,0.03 -0.01,0.04l-0.12 0.48c-0,0.01 -0.01,0.03 -0.02,0.04l-0.11 0.54c-0.05,0.15 -0.03,0.43 -0.09,0.61 -0.05,0.15 -0.02,-0.1 -0.07,0.2 -0.05,0.35 -0.02,1.52 -0.01,1.85 0.02,0.47 0.06,0.08 0.11,0.43 0.02,0.18 -0.02,0.34 0.03,0.52l0.07 0.2c0.02,0.1 0.01,0.13 0.04,0.23l0.17 0.6c0,0.01 0.01,0.03 0.01,0.04l0.1 0.28c0.02,0.05 0.02,0.07 0.04,0.12l0.04 0.12c0,0.01 0.01,0.03 0.01,0.04l0.19 0.47c0.01,0.01 0.01,0.03 0.02,0.04l0.67 1.34c0.01,0.01 0.01,0.03 0.02,0.04l0.67 0.96c0.1,0.11 0.03,-0 0.14,0.14l0.14 0.24c0.2,0.29 0.51,0.52 0.76,0.77l0.45 0.36c0.17,0.11 0.29,0.29 0.47,0.4 0.01,0.01 0.03,0.01 0.04,0.02 0.01,0.01 0.02,0.01 0.03,0.02l0.55 0.38c0.01,0 0.06,0.03 0.07,0.04 0.01,0.01 0.02,0.01 0.03,0.02l0.84 0.47c0.03,0.02 0.07,0.03 0.11,0.05 0.01,0.01 0.03,0.01 0.04,0.02l0.07 0.04c0.38,0.19 0.8,0.29 1.2,0.43l0.24 0.08c0.01,0 0.03,0.01 0.04,0.02l1.06 0.25c0.1,0.03 0.14,0.03 0.25,0.03 0.53,0 0.5,0.11 0.98,0.11 0.33,-0 0.76,0.06 1.08,-0.01l0.2 -0.08c0.24,-0.07 0.52,0.02 0.75,-0.06l2.25 -0.69c0.01,-0.01 0.03,-0.01 0.04,-0.02l0.4 -0.2c0.01,-0.01 0.03,-0.01 0.04,-0.02l0.43 -0.22c0.01,-0.01 0.03,-0.01 0.04,-0.02l1.3 -0.87c0.13,-0.07 0.04,-0 0.16,-0.11 0.28,-0.24 1.3,-1.24 1.47,-1.52 0.08,-0.14 -0,-0.04 0.11,-0.16 0.09,-0.1 0.47,-0.55 0.58,-0.78 0.24,-0.5 0.22,-0.2 0.4,-0.69z"/>
  </g>
 </g>
</svg>
